# xmcd
#
# Track frame offsets: 
#        150
#        18851
#        41824
#        62740
#        86316
#        109338
#        134076
#        154130
#
# Disc length: 2324 seconds
#
# Revision: 1
# Processed by: cddbd v1.5.2PL0 Copyright (c) Steve Scherf et al.
# Submitted via: ExactAudioCopyFreeDBPlugin 1.0
#
DISCID=67091208
DTITLE=Radiance - Pick-N-Choose
DYEAR=1985
DGENRE=Soul
TTITLE0=Electra-Fine Lady
TTITLE1=Fresshh
TTITLE2=Lollipop Lover
TTITLE3=Pick-N-Choose
TTITLE4=Sneak It-Break It
TTITLE5=Where Da Freaks At?
TTITLE6=Can't Keep My Hands To Myself
TTITLE7=All Night
EXTD=
EXTT0=
EXTT1=
EXTT2=
EXTT3=
EXTT4=
EXTT5=
EXTT6=
EXTT7=
PLAYORDER=
